<svg xmlns="http://www.w3.org/2000/svg" viewBox="0 0 400 300" role="img" aria-label="Halco Laser Pro 190 DD lure illustration">
  <defs>
    <linearGradient id="body" x1="0%" y1="0%" x2="100%" y2="100%">
      <stop offset="0%" style="stop-color:#c41e3a"/>
      <stop offset="50%" style="stop-color:#8b0000"/>
      <stop offset="100%" style="stop-color:#4a0404"/>
    </linearGradient>
    <linearGradient id="belly" x1="0%" y1="0%" x2="0%" y2="100%">
      <stop offset="0%" style="stop-color:#f5f5f4"/>
      <stop offset="100%" style="stop-color:#d6d3d1"/>
    </linearGradient>
  </defs>
  <rect width="400" height="300" fill="#f4f4f5"/>
  <ellipse cx="200" cy="155" rx="130" ry="38" fill="url(#body)" transform="rotate(-8 200 155)"/>
  <ellipse cx="200" cy="168" rx="110" ry="22" fill="url(#belly)" transform="rotate(-8 200 168)"/>
  <path d="M 85 155 Q 60 145 55 160 Q 60 175 85 168 Z" fill="#374151"/>
  <circle cx="295" cy="148" r="6" fill="#1f2937"/>
  <circle cx="295" cy="148" r="3" fill="#fef08a"/>
  <path d="M 310 155 L 340 140 L 345 170 L 310 165 Z" fill="#6b7280"/>
  <path d="M 120 175 L 115 195 L 125 195 Z" fill="#9ca3af"/>
  <path d="M 200 178 L 195 200 L 205 200 Z" fill="#9ca3af"/>
  <path d="M 270 172 L 265 192 L 275 192 Z" fill="#9ca3af"/>
  <text x="200" y="280" text-anchor="middle" font-family="system-ui,sans-serif" font-size="11" fill="#71717a">Halco Laser Pro 190 DD · Illustration</text>
</svg>
